<?xml version="1.0" standalone="no"?><!DOCTYPE svg PUBLIC "-//W3C//DTD SVG 1.1//EN" "http://www.w3.org/Graphics/SVG/1.1/DTD/svg11.dtd"><svg t="1784625921119" class="icon" viewBox="0 0 1025 1024" version="1.1" xmlns="http://www.w3.org/2000/svg" p-id="18427" xmlns:xlink="http://www.w3.org/1999/xlink" width="200.1953125" height="200"><path d="M1009.842605 310.021953a32.363163 32.363163 0 0 0-32.267907 0l-161.291907 93.124466v-97.530047c0-62.011535-50.44986-112.461395-112.461396-112.461395H114.426047c-62.011535 0-112.461395 50.44986-112.461396 112.461395v426.210233c0 62.011535 50.44986 112.461395 112.461396 112.461395h589.395348c62.011535 0 112.461395-50.44986 112.461396-112.461395v-97.530047l161.291907 93.124465a32.363163 32.363163 0 0 0 32.267907 0 32.339349 32.339349 0 0 0 16.122046-27.933767V337.955721c0-11.490233-6.179721-22.182698-16.122046-27.933768zM758.462512 731.826605a54.688744 54.688744 0 0 1-54.62921 54.641116H114.426047a54.700651 54.700651 0 0 1-54.62921-54.641116V305.616372a54.700651 54.700651 0 0 1 54.62921-54.641116h589.395348a54.700651 54.700651 0 0 1 54.62921 54.641116v426.210233z m202.990139-88.206884l-145.16986-83.813209v-82.146233l145.16986-83.813209v249.772651z" p-id="18428" fill="#e6e6e6"></path><path d="M173.937116 302.925395a60.749395 60.749395 0 1 0 0 121.498791 60.761302 60.761302 0 1 0 0-121.498791z" p-id="18429" fill="#e6e6e6"></path></svg>